SplineFontDB: 3.0
FontName: Agypta
FullName: Agypta
FamilyName: Agypta
Weight: Light
Copyright: Created by Guillaume Ayoub with FontForge 2.0 (http://fontforge.sf.net)
UComments: "2013-7-28: Created." 
Version: 001.000
ItalicAngle: 0
UnderlinePosition: -100
UnderlineWidth: 50
Ascent: 750
Descent: 250
LayerCount: 2
Layer: 0 0 "Arri+AOgA-re"  1
Layer: 1 0 "Avant"  0
XUID: [1021 779 1303216649 2718556]
FSType: 8
OS2Version: 0
OS2_WeightWidthSlopeOnly: 0
OS2_UseTypoMetrics: 1
CreationTime: 1375026792
ModificationTime: 1396795565
PfmFamily: 17
TTFWeight: 300
TTFWidth: 5
LineGap: 90
VLineGap: 0
OS2TypoAscent: 0
OS2TypoAOffset: 1
OS2TypoDescent: 0
OS2TypoDOffset: 1
OS2TypoLinegap: 90
OS2WinAscent: 0
OS2WinAOffset: 1
OS2WinDescent: 0
OS2WinDOffset: 1
HheadAscent: 0
HheadAOffset: 1
HheadDescent: 0
HheadDOffset: 1
OS2Vendor: 'PfEd'
Lookup: 258 0 0 "kerning"  {"kerning" [150,20,0] } ['kern' ('DFLT' <'dflt' > 'latn' <'dflt' > ) ]
MarkAttachClasses: 1
DEI: 91125
KernClass2: 10 9 "kerning" 
 5 A L R
 3 D O
 5 F P T
 5 V W Y
 3 a u
 7 b e o p
 1 f
 5 h m n
 5 v w y
 1 A
 7 C G O Q
 1 T
 5 V W Y
 3 b t
 1 u
 11 c d e g o q
 5 v w y
 0 {} 0 {} 0 {} 0 {} 0 {} 0 {} 0 {} 0 {} 0 {} 0 {} 0 {} -40 {} -80 {} -90 {} -20 {} -80 {} 0 {} -100 {} 0 {} -20 {} 20 {} 0 {} -20 {} 0 {} 0 {} 0 {} 0 {} 0 {} -110 {} -10 {} 0 {} 0 {} 0 {} 0 {} -60 {} 0 {} 0 {} -100 {} -50 {} 0 {} 0 {} 0 {} -80 {} -70 {} -40 {} 0 {} 0 {} -20 {} -40 {} -40 {} -30 {} -60 {} 0 {} -60 {} 0 {} 0 {} 0 {} -20 {} -40 {} -20 {} 0 {} 0 {} 0 {} 0 {} 0 {} 0 {} 20 {} 20 {} 30 {} 0 {} 0 {} 0 {} 0 {} 0 {} -20 {} -80 {} -50 {} -20 {} -80 {} 0 {} -50 {} 0 {} -100 {} 0 {} 0 {} 0 {} 0 {} 0 {} -10 {} 0 {}
LangName: 1033 
Encoding: UnicodeFull
UnicodeInterp: none
NameList: Adobe Glyph List
DisplaySize: -36
AntiAlias: 1
FitToEm: 1
WinInfo: 0 43 4
BeginPrivate: 1
BlueValues 41 [-210 -200 -10 0 500 510 650 660 700 710]
EndPrivate
BeginChars: 1114112 99

StartChar: H
Encoding: 72 72 0
Width: 730
VWidth: 0
Flags: W
HStem: 0 80<50 140 220 310 420 510 590 680> 310 80<220 510> 570 80<50 140 220 310 420 510 590 680>
VStem: 50 260<0 80 570 650> 140 80<80 310 390 570> 420 260<0 80 570 650> 510 80<80 310 390 570>
LayerCount: 2
Fore
SplineSet
50 650 m 25xf0
 310 650 l 25
 310 570 l 25xf0
 220 570 l 25
 220 390 l 25
 510 390 l 25
 510 570 l 25xea
 420 570 l 25
 420 650 l 25
 680 650 l 25
 680 570 l 25xe4
 590 570 l 25
 590 80 l 25xe2
 680 80 l 25
 680 0 l 25
 420 0 l 25
 420 80 l 25xe4
 510 80 l 25
 510 310 l 25
 220 310 l 25
 220 80 l 25xea
 310 80 l 25
 310 0 l 25
 50 0 l 25
 50 80 l 25xf0
 140 80 l 25
 140 570 l 25xe8
 50 570 l 25
 50 650 l 25xf0
EndSplineSet
EndChar

StartChar: I
Encoding: 73 73 1
Width: 360
VWidth: 0
Flags: W
HStem: 0 80<50 140 220 310> 570 80<50 140 220 310>
VStem: 50 260<0 80 570 650> 140 80<80 570>
LayerCount: 2
Fore
SplineSet
220 80 m 29xd0
 310 80 l 29
 310 0 l 29
 50 0 l 25
 50 80 l 25xe0
 140 80 l 25
 140 570 l 25xd0
 50 570 l 25
 50 650 l 25
 310 650 l 29
 310 570 l 29xe0
 220 570 l 29
 220 80 l 29xd0
EndSplineSet
EndChar

StartChar: L
Encoding: 76 76 2
Width: 570
VWidth: 0
Flags: W
HStem: 0 160<440 520> 0 80<50 140 220 440> 570 80<50 140 220 310>
VStem: 140 80<80 570> 440 80<80 160>
LayerCount: 2
Fore
SplineSet
440 160 m 1xb8
 520 160 l 9
 520 0 l 25xb8
 50 0 l 25
 50 80 l 25
 140 80 l 25
 140 570 l 25
 50 570 l 25
 50 650 l 25
 310 650 l 25
 310 570 l 25
 220 570 l 25
 220 80 l 17
 440 80 l 1x78
 440 160 l 1xb8
EndSplineSet
EndChar

StartChar: E
Encoding: 69 69 3
Width: 580
VWidth: 0
Flags: W
HStem: 0 160<450 530> 0 80<50 140 220 450> 310 80<220 360> 490 160<450 530> 570 80<50 140 220 450>
VStem: 140 80<80 310 390 570> 450 80<80 160 490 570>
LayerCount: 2
Fore
SplineSet
50 650 m 1x6e
 530 650 l 1
 530 490 l 1
 450 490 l 1x36
 450 570 l 1
 220 570 l 1
 220 390 l 1
 360 390 l 1
 360 310 l 1
 220 310 l 1
 220 80 l 1
 450 80 l 1x6e
 450 160 l 1
 530 160 l 1
 530 0 l 1xa6
 50 0 l 1
 50 80 l 1
 140 80 l 1
 140 570 l 1
 50 570 l 1
 50 650 l 1x6e
EndSplineSet
EndChar

StartChar: F
Encoding: 70 70 4
Width: 580
VWidth: 0
Flags: W
HStem: 0 80<50 140 220 310> 310 80<220 360> 570 80<50 140 220 450>
VStem: 140 80<80 310 390 570> 450 80<478 570>
LayerCount: 2
Fore
SplineSet
310 0 m 1
 50 0 l 1
 50 80 l 1
 140 80 l 1
 140 570 l 1
 50 570 l 1
 50 650 l 1
 530 648 l 1
 530 478 l 1
 450 478 l 1
 450 570 l 1
 220 570 l 1
 220 390 l 1
 360 390 l 1
 360 310 l 1
 220 310 l 1
 220 80 l 1
 310 80 l 1
 310 0 l 1
EndSplineSet
EndChar

StartChar: J
Encoding: 74 74 5
Width: 370
VWidth: 0
Flags: W
HStem: -210 80<-10 100.699> 570 80<60 150 230 320>
VStem: 150 80<-85.0443 570>
LayerCount: 2
Fore
SplineSet
230 0 m 22
 230 -92 228.008 -210 -24 -210 c 0
 -10 -130 l 0
 126 -130 150 -80 150 0 c 10
 150 570 l 25
 60 570 l 25
 60 650 l 25
 320 650 l 25
 320 570 l 25
 230 570 l 25
 230 0 l 22
EndSplineSet
EndChar

StartChar: a
Encoding: 97 97 6
Width: 565
VWidth: 0
Flags: W
HStem: -10 75<134.589 286.668> 0 80<445 535> 440 70<161.623 344.974>
VStem: 40 80<79.6107 178.477> 60 80<350 419.066> 370 75<119.628 270 334.688 414.559>
LayerCount: 2
Fore
SplineSet
370 270 m 17xb4
 286 224 120 214.13 120 136 c 3
 120 73.8369 159.943 65 195 65 c 3
 262.357 65 343 111 370 135 c 9
 370 270 l 17xb4
60 350 m 25xac
 60 422 l 18
 60 476 174.783 510 260 510 c 27
 352.887 510 445 494 445 360 c 10
 445 80 l 25
 535 80 l 25
 535 0 l 25
 370 0 l 25x6c
 370 50 l 17
 269 -9 231.074 -10 170 -10 c 3
 98.9932 -10 40 48.2002 40 130 c 3xb4
 40 294 370 299 370 360 c 3
 370 430.002 313.046 440 260 440 c 19
 212.051 440 140 417.047 140 402 c 10
 140 350 l 25
 60 350 l 25xac
EndSplineSet
EndChar

StartChar: dotlessi
Encoding: 305 305 7
Width: 350
VWidth: 0
Flags: W
HStem: 0 80<50 140 220 300> 420 80<50 140>
VStem: 140 80<80 420>
LayerCount: 2
Fore
SplineSet
220 80 m 25
 300 80 l 25
 300 0 l 25
 50 0 l 25
 50 80 l 25
 140 80 l 25
 140 420 l 25
 50 420 l 25
 50 500 l 25
 220 500 l 25
 220 80 l 25
EndSplineSet
EndChar

StartChar: uni0237
Encoding: 567 567 8
Width: 280
VWidth: 0
Flags: W
HStem: -210 80<-10 100.699> 420 80<60 150>
VStem: 150 80<-86.0016 420>
LayerCount: 2
Fore
SplineSet
230 0 m 18
 230 -115 228.008 -210 -24 -210 c 0
 -10 -130 l 0
 126 -130 150 -80 150 0 c 10
 150 420 l 25
 60 420 l 25
 60 500 l 25
 230 500 l 25
 230 0 l 18
EndSplineSet
EndChar

StartChar: l
Encoding: 108 108 9
Width: 340
VWidth: 0
Flags: W
HStem: 0 80<50 140 220 310> 620 80<50 140>
VStem: 140 80<80 620>
LayerCount: 2
Fore
SplineSet
220 80 m 25
 310 80 l 25
 310 0 l 25
 50 0 l 25
 50 80 l 25
 140 80 l 25
 140 620 l 25
 50 620 l 25
 50 700 l 25
 220 700 l 25
 220 80 l 25
EndSplineSet
EndChar

StartChar: p
Encoding: 112 112 10
Width: 600
VWidth: 0
Flags: W
HStem: -200 80<40 130 210 300> -10 80<248.832 419.304> 420 80<40 130> 430 80<298.577 423.358>
VStem: 130 80<-120 30 98.215 334.716 400 420> 470 90<134.12 371.887>
LayerCount: 2
Fore
SplineSet
210 110 m 1xdc
 210 110 267.824 70 370 70 c 3
 443.585 70 470 169.694 470 250 c 31
 470 330.306 450.306 430 370 430 c 27
 276.075 430 210 330 210 250 c 2
 210 110 l 1xdc
210 30 m 1
 210 -120 l 9
 300 -120 l 25
 300 -200 l 25
 40 -200 l 25
 40 -120 l 25
 130 -120 l 25
 130 420 l 25
 40 420 l 25
 40 500 l 25
 210 500 l 17xec
 210 400 l 1
 226 458 301.031 510 380 510 c 3
 520.014 510 560 373.329 560 250 c 27
 560 126.671 522.014 -10 380 -10 c 3
 269.927 -10 210 30 210 30 c 1
EndSplineSet
EndChar

StartChar: period
Encoding: 46 46 11
Width: 220
VWidth: 0
Flags: W
HStem: 0 110<70.2399 149.76>
VStem: 60 100<9.75869 100.241>
LayerCount: 2
Fore
SplineSet
110 110 m 27
 138.989 110 160 83.9893 160 55 c 27
 160 26.0107 138.989 0 110 0 c 27
 81.0107 0 60 26.0107 60 55 c 27
 60 83.9893 81.0107 110 110 110 c 27
EndSplineSet
EndChar

StartChar: b
Encoding: 98 98 14
Width: 590
VWidth: 0
Flags: W
HStem: -10 80<181.058 404.929> 430 80<268.577 411.266> 620 80<10 100>
VStem: 100 80<82.7795 334.716 400 620> 460 90<128.863 374.633>
LayerCount: 2
Fore
SplineSet
180 90 m 1
 180 90 217.824 70 320 70 c 3
 425.005 70 460 124.936 460 250 c 3
 460 379.062 424.37 430 340 430 c 27
 246.075 430 180 330 180 250 c 2
 180 90 l 1
100 40 m 9
 100 620 l 25
 10 620 l 25
 10 700 l 25
 180 700 l 17
 180 400 l 1
 196 458 271.031 510 350 510 c 3
 490.014 510 550 377.93 550 250 c 27
 550 114.619 501.276 -10 320 -10 c 3
 183.875 -10 100 40 100 40 c 9
EndSplineSet
EndChar

StartChar: o
Encoding: 111 111 15
Width: 580
VWidth: 0
Flags: W
HStem: -10 80<209.064 371.712> 430 80<203.908 371.294>
VStem: 40 90<155.639 350.891> 450 90<153.82 346.18>
LayerCount: 2
Fore
SplineSet
290 430 m 3
 173 430 130 343.925 130 250 c 27
 130 156.075 185 70 290 70 c 3
 401.162 70 450 156.075 450 250 c 27
 450 343.925 401.018 430 290 430 c 3
290 -10 m 3
 147.986 -10 40 109.329 40 250 c 27
 40 390.671 149.986 510 290 510 c 3
 427.014 510 540 390.671 540 250 c 27
 540 109.329 429.014 -10 290 -10 c 3
EndSplineSet
EndChar

StartChar: r
Encoding: 114 114 16
Width: 540
VWidth: 0
Flags: W
HStem: 0 80<50 140 230 320> 420 80<50 140> 430 80<318.437 485.706>
VStem: 140 90<80 330.971>
LayerCount: 2
Fore
SplineSet
520 390 m 1xb0
 454.5 428.5 437.605 430 380 430 c 3xb0
 304.275 430 230 330 230 250 c 2
 230 80 l 9
 320 80 l 25
 320 0 l 25
 50 0 l 25
 50 80 l 25
 140 80 l 25
 140 420 l 25
 50 420 l 25
 50 500 l 25
 220 500 l 17xd0
 220 400 l 1
 236 458 311.031 510 390 510 c 3
 432.512 510 483 504 520 470 c 1
 520 390 l 1xb0
EndSplineSet
EndChar

StartChar: e
Encoding: 101 101 17
Width: 510
VWidth: 0
Flags: W
HStem: -10 80<190.613 409.813> 230 80<117.312 393.55> 430 80<181.592 337.644>
VStem: 30 81.1387<149.633 230>
LayerCount: 2
Fore
SplineSet
111.139 230 m 1
 112 140 178.979 70 270 70 c 3
 395.536 70 463 112.5 480 130 c 1
 480 50 l 1
 464.5 33 402.565 -10 280 -10 c 3
 103.999 -10 30 106.599 30 250 c 3
 30 393.401 119.986 510 260 510 c 3
 397.014 510 480 403.333 480 230 c 1
 111.139 230 l 1
393.55 310 m 1
 388 360 358 430 260 430 c 3
 165.47 430 130 360 117.312 310 c 1
 393.55 310 l 1
EndSplineSet
EndChar

StartChar: n
Encoding: 110 110 18
Width: 670
VWidth: 0
Flags: W
HStem: 0 80<40 130 220 300 380 460 550 640> 420 80<40 130> 430 80<289.993 414.077>
VStem: 130 90<80 331.4> 460 90<80 375.538>
LayerCount: 2
Fore
SplineSet
550 80 m 9xb8
 640 80 l 25
 640 0 l 25
 380 0 l 25
 380 80 l 25
 460 80 l 25
 460 250 l 2
 460 365 432.271 430 350 430 c 27xb8
 246.963 430 220 280 220 200 c 2
 220 80 l 9
 300 80 l 25
 300 0 l 25
 40 0 l 25
 40 80 l 25
 130 80 l 25
 130 420 l 25
 40 420 l 25
 40 500 l 25
 210 500 l 17xd8
 210 400 l 1
 226 458 281.031 510 360 510 c 3
 500.014 510 550 423 550 250 c 10
 550 80 l 9xb8
EndSplineSet
EndChar

StartChar: h
Encoding: 104 104 19
Width: 660
VWidth: 0
Flags: W
HStem: 0 80<50 140 220 300 380 460 540 630> 430 80<287.487 413.808> 620 80<50 140>
VStem: 140 80<80 349.357 400 620> 460 80<80 375.538>
LayerCount: 2
Fore
SplineSet
540 80 m 9
 630 80 l 25
 630 0 l 25
 380 0 l 25
 380 80 l 25
 460 80 l 25
 460 250 l 2
 460 365 432.271 430 350 430 c 27
 263.406 430 220 330 220 250 c 2
 220 80 l 9
 300 80 l 25
 300 0 l 25
 50 0 l 25
 50 80 l 25
 140 80 l 25
 140 620 l 25
 50 620 l 25
 50 700 l 25
 220 700 l 17
 220 400 l 1
 236 458 281.031 510 360 510 c 3
 500.014 510 540 423 540 250 c 10
 540 80 l 9
EndSplineSet
EndChar

StartChar: M
Encoding: 77 77 20
Width: 810
VWidth: 0
Flags: MW
HStem: 0 80<50 140 220 320 490 590 670 760> 570 80<50 140 670 760>
VStem: 140 80<80 501> 590 80<80 501>
DStem2: 220 650 220 501 0.540462 -0.841368<125.364 341.212> 405 363.293 405 213 0.540462 0.841368<0 215.848>
LayerCount: 2
Fore
SplineSet
405 213 m 5
 220 501 l 1
 220 80 l 1
 320 80 l 1
 320 0 l 1
 50 0 l 1
 50 80 l 1
 140 80 l 1
 140 570 l 1
 50 570 l 1
 50 650 l 1
 220 650 l 1
 405 363.293 l 5
 590 650 l 5
 760 650 l 1
 760 570 l 1
 670 570 l 1
 670 80 l 1
 760 80 l 1
 760 0 l 1
 490 0 l 1
 490 80 l 1
 590 80 l 1
 590 501 l 5
 405 213 l 5
EndSplineSet
EndChar

StartChar: D
Encoding: 68 68 21
Width: 630
VWidth: 0
Flags: W
HStem: 0 80<50 140 220 375.98> 580 80<50 140 220 348.829>
VStem: 140 80<80 580> 510 90<194.64 422.954>
LayerCount: 2
Fore
SplineSet
510 300 m 7
 510 520 364.031 580 220 580 c 0
 220 80 l 3
 360.004 80 510 107.99 510 300 c 7
220 0 m 2
 50 0 l 1
 50 80 l 1
 140 80 l 1
 140 580 l 1
 50 580 l 1
 50 660 l 1
 220 660 l 2
 500 660 600 498.01 600 300 c 7
 600 142 518 0 220 0 c 2
EndSplineSet
EndChar

StartChar: f
Encoding: 102 102 22
Width: 435
VWidth: 0
Flags: W
HStem: 0 80<50 140 220 310> 350 80<50 140 220 370> 630 80<246.825 404.26>
VStem: 140 80<80 350 430 603.182>
LayerCount: 2
Fore
SplineSet
220 500 m 2
 220 430 l 1
 370 430 l 5
 370 350 l 5
 220 350 l 1
 220 80 l 1
 310 80 l 1
 310 0 l 1
 50 0 l 1
 50 80 l 1
 140 80 l 1
 140 350 l 1
 50 350 l 1
 50 430 l 1
 140 430 l 1
 140 500 l 2
 140 679.5 198.707 710 300 710 c 3
 347.523 710 392.5 697.5 420 680 c 1
 420 600 l 1
 385.5 619.5 357.605 630 300 630 c 3
 241.606 630 220 586.5 220 500 c 2
EndSplineSet
EndChar

StartChar: c
Encoding: 99 99 23
Width: 550
VWidth: 0
Flags: W
HStem: -10 75<216.94 437.97> 435 75<218.897 418.443>
VStem: 30 90<158.937 340.391> 420 80<330 423.306>
LayerCount: 2
Fore
SplineSet
420 329.995 m 1
 420 412.995 l 1
 390 432 344.329 435 310 435 c 3
 221.978 435 120 378 120 250 c 3
 120 118 221.978 65 310 65 c 3
 403.001 65 452 84 500 130 c 1
 500 50 l 1
 476 25.333 429.012 -10 310 -10 c 3
 133.999 -10 30 107.599 30 250 c 3
 30 393.401 133.999 510 310 510 c 3
 429.012 510 472 473 500 446 c 1
 500 330 l 1
 420 329.995 l 1
EndSplineSet
EndChar

StartChar: u
Encoding: 117 117 24
Width: 660
VWidth: 0
Flags: W
HStem: -10 80<246.541 395.716> 0 80<540 630> 420 80<30 120 370 460>
VStem: 120 80<124.462 420> 460 80<143.564 420>
LayerCount: 2
Fore
SplineSet
120 420 m 9xb8
 30 420 l 25
 30 500 l 25
 200 500 l 25
 200 250 l 2
 200 135 224.995 70 320 70 c 3xb8
 431.005 70 460 170 460 250 c 2
 460 420 l 9
 370 420 l 25
 370 500 l 25
 540 500 l 25
 540 80 l 25
 630 80 l 25
 630 0 l 25
 460 0 l 17
 460 80 l 1x78
 436 24 388.969 -10 310 -10 c 3
 169.986 -10 120 77 120 250 c 10
 120 420 l 9xb8
EndSplineSet
EndChar

StartChar: T
Encoding: 84 84 25
Width: 560
VWidth: 0
Flags: W
HStem: 0 80<150 240 320 410> 490 160<20 100 460 540> 570 80<100 240 320 460>
VStem: 20 80<490 570> 240 80<80 570> 460 80<490 570>
CounterMasks: 1 1c
LayerCount: 2
Fore
SplineSet
540 650 m 25xdc
 540 490 l 17
 460 490 l 1xdc
 460 570 l 1
 320 570 l 9
 320 80 l 25
 410 80 l 25
 410 0 l 25
 150 0 l 25
 150 80 l 25
 240 80 l 25
 240 570 l 17
 100 570 l 1xbc
 100 490 l 1
 20 490 l 9
 20 650 l 25
 540 650 l 25xdc
EndSplineSet
EndChar

StartChar: N
Encoding: 78 78 26
Width: 740
VWidth: 0
Flags: MW
HStem: 0 80<50 140 220 320> 570 80<50 140 420 510 590 680>
VStem: 140 80<80 491> 510 80<160 570>
DStem2: 220 650 220 491 0.508552 -0.861031<136.904 569.385>
LayerCount: 2
Fore
SplineSet
220 650 m 29
 510 160 l 29
 510 570 l 25
 420 570 l 25
 420 650 l 25
 680 650 l 25
 680 570 l 25
 590 570 l 25
 590 0 l 25
 510 0 l 29
 220 491 l 29
 220 80 l 25
 320 80 l 25
 320 0 l 25
 50 0 l 25
 50 80 l 25
 140 80 l 25
 140 570 l 25
 50 570 l 25
 50 650 l 25
 220 650 l 29
EndSplineSet
EndChar

StartChar: g
Encoding: 103 103 27
Width: 520
VWidth: 0
Flags: W
HStem: -210 80<119.081 350.747> -10 80<163.919 309.192> 430 80<178.944 348.535>
VStem: 40 80<116.572 362.725> 400 80<-77.851 80 169.029 382.345>
LayerCount: 2
Fore
SplineSet
400 0 m 10
 400 80 l 1
 376 24 308.969 -10 230 -10 c 3
 89.9863 -10 40 67 40 240 c 3
 40 375.83 95.9512 510 260 510 c 3
 326.06 510 426 492 480 390 c 1
 480 0 l 2
 480 -192 328.969 -210 260 -210 c 3
 159.986 -210 116 -188 70 -170 c 9
 70 -90 l 1
 128 -118 214.968 -130.057 270 -130 c 7
 338.247 -130 400 -100 400 0 c 10
120 240 m 3
 120 95.9961 165.083 70 240 70 c 3
 328.247 70 400 170 400 250 c 2
 400 355 l 1
 364 410 324.394 430 260 430 c 3
 164 430 120 374.004 120 240 c 3
EndSplineSet
EndChar

StartChar: d
Encoding: 100 100 28
Width: 620
VWidth: 0
Flags: W
HStem: -10 80<173.964 335.718> 0 80<500 590> 430 80<188.5 350.714> 620 80<330 420>
VStem: 40 80<128.988 350.689> 420 80<154.076 371.118 457 620>
LayerCount: 2
Fore
SplineSet
120 240 m 3xbc
 120 96.9685 185.083 70 260 70 c 3
 348.247 70 420 150 420 230 c 2
 420 345 l 1
 384 400 324.394 430 260 430 c 3
 183.438 430 120 371.034 120 240 c 3xbc
420 457 m 1
 420 620 l 1
 330 620 l 1
 330 700 l 1
 500 700 l 1
 500 80 l 1
 590 80 l 1
 590 0 l 1
 420 0 l 1
 420 80 l 1x7c
 396 24 328.969 -10 250 -10 c 3
 109.986 -10 40 67 40 240 c 3
 40 375.83 124.17 510 260 510 c 3
 326.06 510 370 505 420 457 c 1
EndSplineSet
EndChar

StartChar: q
Encoding: 113 113 29
Width: 580
VWidth: 0
Flags: W
HStem: -210 80<310 400 480 570> -10 80<165.035 315.718> 430 80<183.37 348.535>
VStem: 40 80<120.656 361.419> 400 80<-130 80 159.253 382.345>
LayerCount: 2
Fore
SplineSet
120 240 m 3
 120 101.707 165.083 70 240 70 c 3
 328.247 70 400 148 400 250 c 2
 400 355 l 1
 364 410 324.394 430 260 430 c 3
 164 430 120 368.004 120 240 c 3
480 390 m 1
 480 -130 l 1
 570 -130 l 1
 570 -210 l 9
 310 -210 l 25
 310 -130 l 25
 400 -130 l 25
 400 80 l 1
 376 24 308.969 -10 230 -10 c 3
 89.9863 -10 40 67 40 240 c 3
 40 375.83 95.9512 510 260 510 c 3
 326.06 510 426 492 480 390 c 1
EndSplineSet
EndChar

StartChar: U
Encoding: 85 85 30
Width: 680
VWidth: 0
Flags: W
HStem: -10 80<247.541 425.652> 570 80<20 110 190 280 400 490 570 660>
VStem: 110 80<130.363 570> 490 80<142.132 570>
LayerCount: 2
Fore
SplineSet
660 650 m 9
 660 570 l 25
 570 570 l 25
 570 250 l 18
 570 76 498.202 -10 340 -10 c 3
 181.987 -10 110 77 110 250 c 10
 110 570 l 9
 20 570 l 25
 20 650 l 17
 280 650 l 9
 280 570 l 25
 190 570 l 25
 190 250 l 2
 190 135 214.936 70 340 70 c 3
 447.168 70 490 136 490 250 c 2
 490 570 l 9
 400 570 l 25
 400 650 l 17
 660 650 l 9
EndSplineSet
EndChar

StartChar: P
Encoding: 80 80 31
Width: 600
VWidth: 0
Flags: W
HStem: 0 80<50 130 210 300> 230 80<210 432.633> 580 80<50 130 210 428.109>
VStem: 130 80<80 230 310 580> 470 90<346.695 535.361>
LayerCount: 2
Fore
SplineSet
210 580 m 1
 210 310 l 1
 340 310 l 2
 434 310 470 335.981 470 440 c 3
 470 578.015 404 580 290 580 c 2
 210 580 l 1
290 660 m 18
 534 660 560 547.671 560 440 c 3
 560 298 492.014 230 350 230 c 2
 210 230 l 1
 210 80 l 9
 300 80 l 25
 300 0 l 25
 50 0 l 25
 50 80 l 25
 130 80 l 25
 130 580 l 25
 50 580 l 25
 50 660 l 25
 290 660 l 18
EndSplineSet
EndChar

StartChar: z
Encoding: 122 122 32
Width: 520
VWidth: 0
Flags: MW
HStem: 0 80<140 390> 420 80<130 370>
VStem: 50 80<330 420> 390 80<80 170>
DStem2: 50 100 140 80 0.696475 0.717581<48.3312 452.498>
LayerCount: 2
Fore
SplineSet
390 170 m 1
 470 170 l 9
 470 0 l 25
 50 0 l 25
 50 100 l 29
 370 420 l 21
 130 420 l 1
 130 330 l 1
 50 330 l 9
 50 500 l 25
 470 500 l 25
 470 420 l 29
 140 80 l 21
 390 80 l 1
 390 170 l 1
EndSplineSet
EndChar

StartChar: m
Encoding: 109 109 33
Width: 960
VWidth: 0
Flags: W
HStem: 0 80<40 130 220 290 370 440 530 600 680 750 840 930> 420 80<40 130> 430 80<283.931 400.253 593.545 709.426>
VStem: 130 90<80 341.953> 440 90<80 338.809> 750 90<80 385.954>
CounterMasks: 1 1c
LayerCount: 2
Fore
SplineSet
530 150 m 10xbc
 530 80 l 9
 600 80 l 25
 600 0 l 25
 370 0 l 25
 370 80 l 25
 440 80 l 25
 440 250 l 2
 440 365 420.306 430 340 430 c 27xbc
 221.194 430 220 230 220 150 c 2
 220 80 l 9
 290 80 l 25
 290 0 l 25
 40 0 l 25
 40 80 l 25
 130 80 l 25
 130 420 l 25
 40 420 l 25
 40 500 l 25
 210 500 l 17xdc
 210 400 l 1
 226 458 271.031 510 350 510 c 3
 451.475 510 477 461 505 370 c 1
 521 428 581.031 510 660 510 c 3
 800.014 510 840 423 840 250 c 10
 840 80 l 9
 930 80 l 25
 930 0 l 25
 680 0 l 25
 680 80 l 25
 750 80 l 25
 750 250 l 2
 750 365 730.306 430 650 430 c 27
 531.194 430 530 230 530 150 c 10xbc
EndSplineSet
EndChar

StartChar: Z
Encoding: 90 90 34
Width: 600
VWidth: 0
Flags: MW
HStem: 0 80<160 470> 570 80<130 440>
VStem: 50 80<480 570> 470 80<80 170>
DStem2: 50 80 160 80 0.622746 0.782424<68.502 626.259>
LayerCount: 2
Fore
SplineSet
470 170 m 1
 550 170 l 9
 550 0 l 25
 50 0 l 25
 50 80 l 29
 440 570 l 21
 130 570 l 1
 130 480 l 1
 50 480 l 9
 50 650 l 25
 550 650 l 25
 550 570 l 29
 160 80 l 21
 470 80 l 1
 470 170 l 1
EndSplineSet
EndChar

StartChar: s
Encoding: 115 115 36
Width: 490
VWidth: 0
Flags: W
HStem: -10 80<105.289 346.778> 435 75<168.02 353.438>
VStem: 40 90<312.033 399.61> 360 90<85.584 169.657> 360 80<340 422.156>
LayerCount: 2
Fore
SplineSet
50 120 m 17xf0
 88 93 147.864 70 240 70 c 3
 328.022 70 360 81.626 360 130 c 7xf0
 360 166 333 187 250 200 c 0
 110.293 221.882 40 261.977 40 350 c 3
 40 408.034 83.999 510 260 510 c 3
 353.021 510 412 473 440 446 c 1
 440 340 l 1
 360 339.995 l 1
 360 407.995 l 1xe8
 338 430 294.329 435 260 435 c 3
 175.852 435 130 398.166 130 350 c 3
 130 309.95 176 295 250 280 c 0
 319.585 265.895 450 258 450 130 c 7
 450 47.9941 416.001 -10 240 -10 c 3
 170 -10 88 8 50 40 c 9
 50 120 l 17xf0
EndSplineSet
EndChar

StartChar: A
Encoding: 65 65 37
Width: 650
VWidth: 0
Flags: MW
HStem: 0 80<20 100 185 265 385 465 550 630> 240 80<256 393> 570 80<210 264>
DStem2: 100 80 185 80 0.317389 0.948296<26.978 193.623 277.104 467.222> 370 650 325 550 0.301131 -0.953583<81.8074 321.608 405.423 572.15>
LayerCount: 2
Fore
SplineSet
370 650 m 5
 550 80 l 5
 630 80 l 1
 630 0 l 1
 385 0 l 1
 385 80 l 1
 465 80 l 1
 418 240 l 1
 232 240 l 1
 185 80 l 1
 265 80 l 1
 265 0 l 1
 20 0 l 1
 20 80 l 1
 100 80 l 1
 264 570 l 1
 210 570 l 1
 210 650 l 1
 370 650 l 5
256 320 m 1
 393 320 l 5
 325 550 l 5
 256 320 l 1
EndSplineSet
EndChar

StartChar: t
Encoding: 116 116 38
Width: 430
VWidth: 0
Flags: W
HStem: -10 80<169.44 348.663> 420 80<130 330> 630 20G<50 130>
VStem: 50 80<114.495 420 500 650>
LayerCount: 2
Fore
SplineSet
250 -10 m 3
 81.9971 -10 50 66 50 250 c 2
 50 650 l 1
 130 650 l 1
 130 500 l 1
 330 500 l 5
 330 420 l 5
 130 420 l 1
 130 250 l 2
 130 100 163.992 70 250 70 c 3
 340.05 70 383 112.5 400 130 c 1
 400 50 l 1
 384.5 33 349.126 -10 250 -10 c 3
EndSplineSet
EndChar

StartChar: O
Encoding: 79 79 40
Width: 680
VWidth: 0
Flags: W
HStem: -10 80<240.662 445.58> 580 80<247.093 432.719>
VStem: 30 90<203.928 439.719> 560 90<194.341 438.132>
LayerCount: 2
Fore
SplineSet
340 580 m 3
 226.89 580 120 494.103 120 320 c 3
 120 175.986 196.996 70 340 70 c 3
 493.003 70 560 171.986 560 320 c 3
 560 490.012 455.004 580 340 580 c 3
340 -10 m 3
 204.63 -10 30 65.9922 30 320 c 3
 30 582.008 199.986 660 340 660 c 3
 477.014 660 650 578 650 320 c 3
 650 57.9922 479.014 -10 340 -10 c 3
EndSplineSet
EndChar

StartChar: v
Encoding: 118 118 41
Width: 640
VWidth: 0
Flags: MW
HStem: 0 21G<281.429 358.571> 420 80<30 110 200 280 360 440 530 610>
DStem2: 200 420 110 420 0.393919 -0.919145<0 323.014> 320 120 350 0 0.393919 0.919145<0 323.014>
LayerCount: 2
Fore
SplineSet
320 120 m 29
 440 420 l 13
 360 420 l 25
 360 500 l 17
 610 500 l 9
 610 420 l 25
 530 420 l 29
 350 0 l 29
 290 0 l 25
 110 420 l 9
 30 420 l 25
 30 500 l 17
 280 500 l 9
 280 420 l 25
 200 420 l 25
 320 120 l 29
EndSplineSet
EndChar

StartChar: V
Encoding: 86 86 42
Width: 700
VWidth: 0
Flags: MW
HStem: 0 21G<292.982 407.018> 570 80<20 100 200 290 410 500 600 680>
DStem2: 200 570 100 570 0.331088 -0.9436<0 483.719> 350 120 400 0 0.331088 0.9436<0 474.283>
LayerCount: 2
Fore
SplineSet
350 120 m 29
 500 570 l 13
 410 570 l 25
 410 650 l 17
 680 650 l 9
 680 570 l 25
 600 570 l 29
 400 0 l 29
 300 0 l 25
 100 570 l 9
 20 570 l 25
 20 650 l 17
 290 650 l 9
 290 570 l 25
 200 570 l 25
 350 120 l 29
EndSplineSet
EndChar

StartChar: Y
Encoding: 89 89 43
Width: 660
VWidth: 0
Flags: MW
HStem: 0 80<200 290 370 460> 570 80<20 100 200 290 370 460 560 640>
VStem: 290 80<80 270>
DStem2: 200 570 100 570 0.535052 -0.844819<0 255.417> 330 350 370 270 0.535052 0.844819<0 255.417>
LayerCount: 2
Fore
SplineSet
290 270 m 25
 100 570 l 9
 20 570 l 25
 20 650 l 17
 290 650 l 9
 290 570 l 25
 200 570 l 25
 330 350 l 29
 460 570 l 13
 370 570 l 25
 370 650 l 17
 640 650 l 9
 640 570 l 25
 560 570 l 29
 370 270 l 29
 370 80 l 25
 460 80 l 25
 460 0 l 25
 200 0 l 25
 200 80 l 25
 290 80 l 25
 290 270 l 25
EndSplineSet
EndChar

StartChar: X
Encoding: 88 88 44
Width: 720
VWidth: 0
Flags: MW
HStem: 0 80<20 90 210 300 400 490 610 680> 570 80<20 90 210 300 400 490 610 680>
DStem2: 210 570 90 570 0.650791 -0.759257<0 223.981> 300 325 350 250 0.650791 0.759257<-244.589 -24.4047> 400 325 350 250 0.650791 -0.759257<24.4047 244.589>
LayerCount: 2
Fore
SplineSet
400 325 m 29
 610 80 l 25
 680 80 l 25
 680 0 l 17
 400 0 l 9
 400 80 l 25
 490 80 l 17
 350 250 l 25
 210 80 l 25
 300 80 l 25
 300 0 l 17
 20 0 l 9
 20 80 l 25
 90 80 l 17
 300 325 l 25
 90 570 l 9
 20 570 l 25
 20 650 l 17
 300 650 l 9
 300 570 l 25
 210 570 l 25
 350 395 l 29
 490 570 l 13
 400 570 l 25
 400 650 l 17
 680 650 l 9
 680 570 l 25
 610 570 l 29
 400 325 l 29
EndSplineSet
EndChar

StartChar: y
Encoding: 121 121 45
Width: 640
VWidth: 0
Flags: MW
HStem: -198 80<135 205 290 355> 420 80<25 90 185 260 370 445 530 615>
DStem2: 185 420 90 420 0.52495 -0.851133<0 289.823> 205 -118 290 -118 0.407398 0.913251<34.6288 223.376 317.804 589.104>
LayerCount: 2
Fore
SplineSet
296 86 m 25
 90 420 l 9
 25 420 l 25
 25 500 l 17
 260 500 l 9
 260 420 l 25
 185 420 l 25
 335 172 l 29
 445 420 l 13
 370 420 l 25
 370 500 l 17
 615 500 l 9
 615 420 l 25
 530 420 l 29
 290 -118 l 13
 355 -118 l 25
 355 -198 l 17
 135 -198 l 9
 135 -118 l 25
 205 -118 l 25
 296 86 l 25
EndSplineSet
EndChar

StartChar: C
Encoding: 67 67 46
Width: 630
VWidth: 0
Flags: W
HStem: -10 80<256.899 503.571> 580 80<250.482 471.718>
VStem: 30 90<201.51 433.599>
LayerCount: 2
Fore
SplineSet
370 -10 m 3
 492.565 -10 564.5 33 580 50 c 1
 580 130 l 1
 563 112.5 485.536 70 360 70 c 0
 257.956 69 120 130.989 120 310 c 3
 120 487.011 227.888 580 340 580 c 3
 446.005 580 482 555 500 547.995 c 5
 500 459.995 l 5
 580 460 l 5
 580 576 l 5
 552 603 471.095 660 340 660 c 3
 137.998 660 30 493.011 30 310 c 3
 30 115 171.748 -10 370 -10 c 3
EndSplineSet
EndChar

StartChar: R
Encoding: 82 82 47
Width: 700
VWidth: 0
Flags: MW
HStem: 0 80<50 140 220 290 410 480 570 660> 280 80<220 340> 580 80<50 140 220 435.771>
VStem: 140 80<80 280 360 580> 480 90<392.056 542.567>
DStem2: 430 280 340 280 0.573462 -0.819232<0 192.52>
LayerCount: 2
Fore
SplineSet
220 360 m 1
 220 360 257.824 360 360 360 c 3
 433.585 360 480 377.994 480 470 c 3
 480 568.046 432 580 220 580 c 9
 220 360 l 1
220 660 m 2
 459 660 570 646.993 570 470 c 3
 570 369.99 519 301 430 280 c 5
 570 80 l 5
 660 80 l 1
 660 0 l 1
 410 0 l 1
 410 80 l 1
 480 80 l 5
 340 280 l 5
 220 280 l 1
 220 80 l 1
 290 80 l 1
 290 0 l 1
 50 0 l 1
 50 80 l 1
 140 80 l 1
 140 580 l 1
 50 580 l 1
 50 660 l 1
 220 660 l 2
EndSplineSet
EndChar

StartChar: G
Encoding: 71 71 48
Width: 650
VWidth: 0
Flags: W
HStem: -10 80<248.534 498.825> 240 80<390 500> 580 80<261.207 495.603>
VStem: 30 90<198.656 429.495> 500 80<84.0158 240 469.995 564.831>
LayerCount: 2
Fore
SplineSet
580 50 m 1
 556 25.333 491.034 -10 360 -10 c 7
 161.748 -10 30 115 30 310 c 3
 30 493.011 157.998 660 360 660 c 7
 491.095 660 552 613 580 586 c 1
 580 469.995 l 1
 500 469.995 l 1
 500 557.995 l 1
 474.161 566.049 443.006 580 360 580 c 7
 247.888 580 120 501.01 120 310 c 3
 120 116.834 257.956 70 360 70 c 7
 404.424 70 455 76 500 90 c 1
 500 240 l 1
 390 240 l 1
 390 320 l 1
 580 320 l 1
 580 50 l 1
EndSplineSet
EndChar

StartChar: comma
Encoding: 44 44 49
Width: 223
VWidth: 0
Flags: W
HStem: -140 270<73 110>
VStem: 73 80<19.0698 130>
LayerCount: 2
Fore
SplineSet
73 50 m 17
 73 130 l 25
 153 130 l 25
 153 50 l 25
 110 -140 l 25
 50 -140 l 25
 73 50 l 17
EndSplineSet
EndChar

StartChar: K
Encoding: 75 75 50
Width: 635
VWidth: 0
Flags: MW
HStem: 0 80<50 140 220 300 360 420 535 605> 570 80<50 140 220 300 360 420 535 605>
VStem: 50 250<0 80 570 650> 140 80<80 260 385 570> 360 245<0 80 570 650>
DStem2: 220 385 265 325 0.74056 0.67199<0 272.43> 265 325 220 260 0.74056 -0.67199<10.3541 279.424>
LayerCount: 2
Fore
SplineSet
220 385 m 9xd8
 420 570 l 9
 360 570 l 25
 360 650 l 17
 605 650 l 9
 605 570 l 25
 535 570 l 25
 265 325 l 29
 535 80 l 29
 605 80 l 25
 605 0 l 17
 360 0 l 9
 360 80 l 25
 420 80 l 21
 220 260 l 21
 220 80 l 9xd8
 300 80 l 25
 300 0 l 25
 50 0 l 25
 50 80 l 25xe8
 140 80 l 25
 140 570 l 25xd8
 50 570 l 25
 50 650 l 25
 300 650 l 25
 300 570 l 25xe8
 220 570 l 17
 220 385 l 9xd8
EndSplineSet
EndChar

StartChar: S
Encoding: 83 83 51
Width: 540
VWidth: 0
Flags: W
HStem: -10 80<148.068 354.829> 580 80<182.777 398.76>
VStem: 30 100<430.393 535.119> 400 80<480 573.269> 410 100<118.608 228.26>
LayerCount: 2
Fore
SplineSet
53 143 m 17xe8
 88 106 194.952 70 260 70 c 3
 348.022 70 410 114.918 410 170 c 7xe8
 410 243.062 355 250 280 280 c 0
 142.859 334.857 30 373 30 480 c 3
 30 568 123.999 660 300 660 c 3
 419.012 660 452 623 480 596 c 1
 480 480 l 1
 400 479.995 l 1
 400 567.995 l 1xf0
 374.161 576.049 334.329 580 300 580 c 3
 211.978 580 130 556.118 130 480 c 3
 130 416.992 207 390 280 360 c 0
 345.671 333.012 510 310.004 510 170 c 3
 510 87.9941 436.001 -10 260 -10 c 3
 140.988 -10 75 24 38 52 c 9
 53 143 l 17xe8
EndSplineSet
EndChar

StartChar: B
Encoding: 66 66 52
Width: 600
VWidth: 0
Flags: W
HStem: 0 80<50 140 220 423.805> 300 80<220 415.637> 580 80<50 140 220 379.615>
VStem: 140 80<80 300 380 580> 440 90<402.153 528.305> 480 90<127.222 246.228>
LayerCount: 2
Fore
SplineSet
220 380 m 1xf8
 320 380 l 2
 393.585 380 440 395.819 440 450 c 3
 440 572.037 353 579 220 580 c 9
 220 380 l 1xf8
473.121 338.07 m 1
 531 317 570 244.025 570 180 c 7xf4
 570 7.99709 388 0 220 0 c 2
 50 0 l 1
 50 80 l 1
 140 80 l 1
 140 580 l 1
 50 580 l 1
 50 660 l 1
 220 660 l 2
 360.014 660 530 656.061 530 450 c 3
 530 398.589 500 346 473.121 338.07 c 1
320 300 m 2
 220 300 l 1
 220 80 l 1
 396 80 480 89.995 480 190 c 7
 480 263.585 393.585 300 320 300 c 2
EndSplineSet
EndChar

StartChar: zero
Encoding: 48 48 53
Width: 600
VWidth: 0
Flags: W
HStem: -10 80<227.313 381.186> 580 80<223.616 375.398>
VStem: 40 90<193.645 456.477> 470 90<182.564 460.288>
LayerCount: 2
Fore
SplineSet
300 580 m 3
 180.962 580 130 454.093 130 320 c 3
 130 179.996 194.957 70 300 70 c 3
 419.004 70 470 173.969 470 320 c 3
 470 464.031 417.004 580 300 580 c 3
300 -10 m 3
 157.986 -10 40 81.998 40 320 c 3
 40 558.002 159.986 660 300 660 c 3
 437.014 660 560 566.051 560 320 c 3
 560 79.9814 439.014 -10 300 -10 c 3
EndSplineSet
EndChar

StartChar: one
Encoding: 49 49 54
Width: 440
VWidth: 0
Flags: W
HStem: 0 80<70 190 270 390> 570 80<60 190>
VStem: 190 80<80 570>
LayerCount: 2
Fore
SplineSet
270 80 m 25
 390 80 l 25
 390 0 l 25
 70 0 l 25
 70 80 l 25
 190 80 l 25
 190 570 l 25
 60 570 l 25
 60 650 l 25
 270 650 l 25
 270 80 l 25
EndSplineSet
EndChar

StartChar: exclam
Encoding: 33 33 55
Width: 280
VWidth: 0
Flags: W
HStem: 0 110<110.24 189.76> 680 20G<90 190>
VStem: 90 100<532 700> 100 100<9.75869 100.241> 110 60<220 388>
LayerCount: 2
Fore
SplineSet
110 220 m 25xc8
 90 700 l 25
 190 700 l 25xe0
 170 220 l 25
 110 220 l 25xc8
EndSplineSet
Refer: 11 46 S 1 0 0 1 40 0 2
EndChar

StartChar: hyphen
Encoding: 45 45 57
Width: 420
VWidth: 0
Flags: W
HStem: 210 80<50 370>
VStem: 50 320<210 290>
LayerCount: 2
Fore
SplineSet
50 210 m 1
 50 290 l 1
 370 290 l 1
 370 210 l 1
 50 210 l 1
EndSplineSet
EndChar

StartChar: w
Encoding: 119 119 58
Width: 900
VWidth: 0
Flags: MW
HStem: 0 21G<262.381 366.955 537.659 647.143> 420 80<30 110 205 275 350 420 480 560 625 695 790 870>
DStem2: 205 420 110 420 0.355995 -0.934488<0 319.506> 315 120 360 0 0.33035 0.943858<0 175.628> 480 420 450 258.824 0.357936 -0.933746<139.759 321.286> 595 120 640 0 0.336336 0.941742<0 316.156>
LayerCount: 2
Fore
SplineSet
420 420 m 1
 350 420 l 1
 350 500 l 1
 560 500 l 1
 560 420 l 1
 480 420 l 1
 595 120 l 1
 695 420 l 1
 625 420 l 1
 625 500 l 1
 870 500 l 1
 870 420 l 1
 790 420 l 1
 640 0 l 1
 545 0 l 1
 450 258.824 l 1
 360 0 l 1
 270 0 l 1
 110 420 l 1
 30 420 l 1
 30 500 l 1
 275 500 l 1
 275 420 l 1
 205 420 l 1
 315 120 l 1
 420 420 l 1
EndSplineSet
EndChar

StartChar: dollar
Encoding: 36 36 59
Width: 540
VWidth: 0
Flags: W
HStem: -10 80<148.068 354.829> 580 80<182.777 398.76>
VStem: 30 100<430.393 535.119> 230 80<-90 740> 400 80<480 573.269> 410 100<118.608 228.26>
LayerCount: 2
Fore
SplineSet
230 -90 m 25xf0
 230 740 l 25
 310 740 l 29
 310 -90 l 29
 230 -90 l 25xf0
EndSplineSet
Refer: 51 83 N 1 0 0 1 0 0 2
EndChar

StartChar: bar
Encoding: 124 124 60
Width: 260
VWidth: 0
Flags: HW
VStem: 90 100<-220 720>
LayerCount: 2
Fore
SplineSet
90 -220 m 25
 90 720 l 25
 170 720 l 25
 170 -220 l 25
 90 -220 l 25
EndSplineSet
EndChar

StartChar: parenleft
Encoding: 40 40 61
Width: 380
VWidth: 0
Flags: HW
HStem: -220 100<325.825 370> 620 100<309.495 370>
VStem: 100 110<96.5228 454.797>
LayerCount: 2
Fore
SplineSet
350 -220 m 17
 151.748 -220 100 85 100 280 c 3
 100 463.011 147.997 720 350 720 c 9
 350 640 l 17
 237.889 640 190 435.013 190 280 c 3
 190 126.987 247.956 -140 350 -140 c 9
 350 -220 l 17
EndSplineSet
EndChar

StartChar: bracketleft
Encoding: 91 91 63
Width: 350
VWidth: 0
Flags: HW
HStem: -220 100<180 340> 620 100<180 340>
VStem: 80 260<-220 -120 620 720> 80 100<-120 620>
LayerCount: 2
Fore
SplineSet
320 -140 m 1xe0
 320 -220 l 1
 80 -220 l 1
 80 720 l 1
 320 720 l 1
 320 640 l 1xe0
 160 640 l 1
 160 -140 l 1xd0
 320 -140 l 1xe0
EndSplineSet
EndChar

StartChar: slash
Encoding: 47 47 65
Width: 340
VWidth: 0
Flags: MW
VStem: 60 270
DStem2: 60 -20 140 -20 0.223898 0.974613<17.9118 759.276>
LayerCount: 2
Fore
SplineSet
60 -20 m 29
 230 720 l 29
 310 720 l 29
 140 -20 l 29
 60 -20 l 29
EndSplineSet
EndChar

StartChar: plus
Encoding: 43 43 68
Width: 520
VWidth: 0
Flags: HW
HStem: 200 100<50 220 320 490>
VStem: 220 100<30 200 300 470>
LayerCount: 2
Fore
SplineSet
470 290 m 1
 470 210 l 1
 300 210 l 1
 300 40 l 1
 220 40 l 1
 220 210 l 1
 50 210 l 1
 50 290 l 1
 220 290 l 1
 220 460 l 1
 300 460 l 1
 300 290 l 1
 470 290 l 1
EndSplineSet
EndChar

StartChar: equal
Encoding: 61 61 69
Width: 480
VWidth: 0
Flags: W
HStem: 120 80<60 420> 300 80<60 420>
LayerCount: 2
Fore
SplineSet
60 300 m 5
 60 380 l 5
 420 380 l 1
 420 300 l 1
 60 300 l 5
60 120 m 5
 60 200 l 5
 420 200 l 1
 420 120 l 1
 60 120 l 5
EndSplineSet
EndChar

StartChar: underscore
Encoding: 95 95 70
Width: 500
VWidth: 0
Flags: HW
HStem: -140 80<50 450>
LayerCount: 2
Fore
SplineSet
60 -120 m 1
 60 -60 l 1
 440 -60 l 5
 440 -120 l 5
 60 -120 l 1
EndSplineSet
EndChar

StartChar: less
Encoding: 60 60 71
Width: 400
VWidth: 0
Flags: HW
LayerCount: 2
Fore
SplineSet
370 30 m 25
 160 255 l 25
 370 480 l 25
 260 480 l 17
 50 255 l 25
 260 30 l 9
 370 30 l 25
EndSplineSet
EndChar

StartChar: W
Encoding: 87 87 72
Width: 960
VWidth: 0
Flags: MW
HStem: 0 21G<264.035 376.131 574.426 695.965> 570 80<20 100 200 270 370 450 510 600 690 760 860 940>
DStem2: 200 570 100 570 0.285805 -0.958288<0 446.36> 320 140 370 0 0.289389 0.957211<0 255.762> 510 570 480 358.823 0.289389 -0.957211<193.459 449.222> 640 140 690 0 0.285805 0.958288<0 446.36>
LayerCount: 2
Fore
SplineSet
450 570 m 1
 370 570 l 1
 370 650 l 1
 600 650 l 1
 600 570 l 1
 510 570 l 1
 640 140 l 5
 760 570 l 5
 690 570 l 1
 690 650 l 1
 940 650 l 1
 940 570 l 1
 860 570 l 5
 690 0 l 5
 580 0 l 1
 480 358.823 l 1
 370 0 l 1
 270 0 l 1
 100 570 l 1
 20 570 l 1
 20 650 l 1
 270 650 l 1
 270 570 l 1
 200 570 l 1
 320 140 l 1
 450 570 l 1
EndSplineSet
EndChar

StartChar: numbersign
Encoding: 35 35 73
Width: 640
VWidth: 0
Flags: MW
HStem: 100 80<50 145.541 248.514 345.541 448.514 550> 300 80<90 191.486 294.459 391.486 494.459 590>
DStem2: 95 -130 175 -130 0.214623 0.976697<17.1698 235.488 335.724 440.688 641.498 759.242> 295 -130 375 -130 0.214623 0.976697<17.1698 235.488 335.724 440.688 641.498 759.242>
LayerCount: 2
Fore
SplineSet
90 300 m 1
 90 380 l 1
 214.459 380 l 1
 265 610 l 1
 345 610 l 1
 294.459 380 l 1
 414.459 380 l 5
 465 610 l 5
 545 610 l 5
 494.459 380 l 5
 590 380 l 1
 590 300 l 1
 471.486 300 l 1
 448.514 180 l 1
 550 180 l 1
 550 100 l 1
 425.541 100 l 1
 375 -130 l 1
 295 -130 l 1
 345.541 100 l 1
 225.541 100 l 1
 175 -130 l 1
 95 -130 l 1
 145.541 100 l 1
 50 100 l 1
 50 180 l 1
 168.514 180 l 1
 191.486 300 l 1
 90 300 l 1
391.486 300 m 1
 271.486 300 l 1
 248.514 180 l 1
 368.514 180 l 1
 391.486 300 l 1
EndSplineSet
EndChar

StartChar: quotesingle
Encoding: 39 39 74
Width: 220
VWidth: 0
Flags: W
HStem: 470 230<80 140>
VStem: 70 80<539 700> 80 60<470 631>
LayerCount: 2
Fore
SplineSet
80 470 m 25xa0
 70 700 l 25
 150 700 l 25xc0
 140 470 l 25
 80 470 l 25xa0
EndSplineSet
EndChar

StartChar: two
Encoding: 50 50 76
Width: 490
VWidth: 0
Flags: W
HStem: 0 80<150 440> 580 80<131.561 308.984>
VStem: 50 80<470 565.748> 340 100<447.359 550.673>
LayerCount: 2
Fore
SplineSet
340 500 m 3
 340 570.859 260.5 580 230 580 c 3
 178.756 580 155.839 566.049 130 557.995 c 1
 130 469.995 l 1
 50 470 l 1
 50 586 l 1
 67 618 110.988 660 230 660 c 3
 406.001 660 440 575.026 440 500 c 3
 440 424.834 150 80 150 80 c 9
 440 80 l 1
 440 0 l 1
 50 0 l 1
 50 80 l 1
 129.716 169.669 340 441.923 340 500 c 3
EndSplineSet
EndChar

StartChar: Q
Encoding: 81 81 77
Width: 680
VWidth: 0
Flags: MW
HStem: -10 80<240.662 445.58> 580 80<247.093 432.719>
VStem: 30 90<203.928 439.719> 560 90<194.341 438.132>
DStem2: 402 295 347 235 0.731055 -0.682318<0.731056 408.904>
LayerCount: 2
Fore
SplineSet
647 -45 m 21
 347 235 l 29
 402 295 l 29
 700 15 l 29
 647 -45 l 21
EndSplineSet
Refer: 40 79 N 1 0 0 1 0 0 2
EndChar

StartChar: question
Encoding: 63 63 79
Width: 520
VWidth: 0
Flags: W
HStem: 0 110<170.24 249.76> 499.995 21G<40 120> 630 80<122.106 310.17>
VStem: 40 80<500 624.087> 160 100<9.75869 100.241> 175 70<220 346> 360 110<496.444 587.932>
LayerCount: 2
Fore
SplineSet
250 360 m 9xf6
 245 220 l 25
 175 220 l 25
 165 400 l 17
 238 430 360 479.967 360 540 c 3
 360 598.138 288.022 630 200 630 c 3
 165.671 630 145.839 626.049 120 617.995 c 1
 120 499.995 l 1
 40 500 l 1
 40 646 l 1
 53 668 80.9883 710 200 710 c 3
 376.001 710 470 618 470 530 c 3
 470 450.994 387.142 414.856 250 360 c 9xf6
EndSplineSet
Refer: 11 46 N 1 0 0 1 100 0 2
EndChar

StartChar: k
Encoding: 107 107 80
Width: 610
VWidth: 0
Flags: MW
HStem: 0 80<50 140 220 270 310 370 500 560> 420 80<310 380> 620 80<50 140>
VStem: 140 80<80 210 315 620>
DStem2: 220 315 280 265 0.829266 0.558853<21.8133 191.362> 280 265 220 210 0.765362 -0.6436<0 187.949>
LayerCount: 2
Fore
SplineSet
220 80 m 1
 270 80 l 1
 270 0 l 1
 50 0 l 1
 50 80 l 1
 140 80 l 1
 140 620 l 1
 50 620 l 1
 50 700 l 1
 220 700 l 1
 220 315 l 1
 380 420 l 1
 310 420 l 1
 310 500 l 1
 510 500 l 1
 510 420 l 1
 280 265 l 5
 500 80 l 5
 560 80 l 1
 560 0 l 1
 310 0 l 1
 310 80 l 1
 370 80 l 5
 220 210 l 5
 220 80 l 1
EndSplineSet
EndChar

StartChar: asciicircum
Encoding: 94 94 81
Width: 420
VWidth: 0
Flags: HW
HStem: 530 180
VStem: 45 330
LayerCount: 2
Fore
SplineSet
375 550 m 25
 210 640 l 25
 45 550 l 25
 45 620 l 17
 210 710 l 25
 375 620 l 9
 375 550 l 25
EndSplineSet
EndChar

StartChar: x
Encoding: 120 120 82
Width: 560
VWidth: 0
Flags: MW
HStem: 0 80<40 90 190 240 320 370 470 520> 420 80<40 90 190 240 320 370 470 520>
VStem: 40 200<0 80 420 500> 320 200<0 80 420 500>
DStem2: 190 420 90 420 0.646977 -0.762509<0 145.917 342.055 375.709> 90 80 190 80 0.646977 0.762509<64.6977 199.177 294.49 440.407> 280 305 330 245 0.624695 0.780869<0 146.022>
LayerCount: 2
Fore
SplineSet
330 245 m 25
 470 80 l 25
 520 80 l 25
 520 0 l 17
 320 0 l 9
 320 80 l 25
 370 80 l 17
 280 180 l 29
 190 80 l 29
 240 80 l 25
 240 0 l 17
 40 0 l 9
 40 80 l 25
 90 80 l 21
 230 245 l 29
 90 420 l 9
 40 420 l 25
 40 500 l 17
 240 500 l 9
 240 420 l 25
 190 420 l 25
 280 305 l 25
 370 420 l 9
 320 420 l 25
 320 500 l 17
 520 500 l 9
 520 420 l 25
 470 420 l 25
 330 245 l 25
EndSplineSet
EndChar

StartChar: four
Encoding: 52 52 83
Width: 540
VWidth: 0
Flags: MW
HStem: 0 21G<310 390> 130 80<140 310 390 490> 630 20G<298.182 390>
VStem: 310 80<0 130 210 500>
DStem2: 50 210 140 210 0.508729 0.860927<45.7856 381.938>
LayerCount: 2
Fore
SplineSet
310 500 m 5
 140 210 l 5
 310 210 l 1
 310 500 l 5
390 130 m 1
 390 0 l 1
 310 0 l 1
 310 130 l 1
 50 130 l 1
 50 210 l 5
 310 650 l 5
 390 650 l 1
 390 210 l 1
 490 210 l 1
 490 130 l 1
 390 130 l 1
EndSplineSet
EndChar

StartChar: seven
Encoding: 55 55 84
Width: 520
VWidth: 0
Flags: MW
HStem: 0 21G<125 223.246> 570 80<130 365>
VStem: 50 80<450 570>
DStem2: 125 0 215 0 0.388057 0.921635<34.9251 618.466>
LayerCount: 2
Fore
SplineSet
125 0 m 29
 365 570 l 21
 130 570 l 1
 130 450 l 1
 50 450 l 9
 50 650 l 25
 450 650 l 25
 450 570 l 29
 215 0 l 21
 125 0 l 29
EndSplineSet
EndChar

StartChar: five
Encoding: 53 53 85
Width: 520
VWidth: 0
Flags: W
HStem: -10 80<146.799 312.092> 360 80<170.996 318.273> 570 80<150 420>
VStem: 60 80<80.8218 170> 70 80<410 570> 370 80<125.867 301.537>
LayerCount: 2
Fore
SplineSet
70 320 m 1xec
 70 650 l 1
 420 650 l 1
 420 570 l 1
 150 570 l 25
 150 410 l 17xec
 170 426 205.971 440 275 440 c 3
 350.007 440 450 382 450 210 c 7
 450 53.9492 364 -10 230 -10 c 3
 110.988 -10 72 34 60 74 c 1
 60 170 l 1
 140 170.005 l 1
 140 102.005 l 1xf4
 150 74 195.671 70 230 70 c 3
 294.031 70 370 99.7095 370 210 c 7
 370 291.174 327.03 360 260 360 c 3
 193.811 360 167 338 150 320 c 1
 70 320 l 1xec
EndSplineSet
EndChar

StartChar: three
Encoding: 51 51 86
Width: 500
VWidth: 0
Flags: MW
HStem: -10 80<152.586 311.068> 489.995 160.005<60 140> 569.995 80.0049<140 345>
VStem: 60 80<86.8771 170 489.995 569.995> 380 80<142.375 299.032>
DStem2: 345 570 335 420 0.597011 0.802233<-126.305 0>
LayerCount: 2
Fore
SplineSet
435 550 m 5xb8
 335 420 l 5
 408 399 460 346.499 460 230 c 3
 460 69.9502 374.065 -10 250 -10 c 3
 130.988 -10 76 41 60 74 c 1
 60 170 l 1
 140 170 l 1
 140 102.005 l 1
 165 78 200.959 70 250 70 c 3
 297 70 380 115.982 380 230 c 3
 380 306.007 316.008 355 250 355 c 2
 185 355 l 5
 345 570 l 5
 140 569.995 l 1xb8
 140 489.995 l 1
 60 489.995 l 1
 60 650 l 1xd8
 435 650 l 17
 435 550 l 5xb8
EndSplineSet
EndChar

StartChar: grave
Encoding: 96 96 87
Width: 390
VWidth: 0
Flags: HW
HStem: 550 200
VStem: 50 300
LayerCount: 2
Fore
SplineSet
87 750 m 25
 340 630 l 25
 315 570 l 25
 55 680 l 17
 87 750 l 25
EndSplineSet
EndChar

StartChar: nine
Encoding: 57 57 88
Width: 570
VWidth: 0
Flags: W
HStem: -10 80<177.598 343.085> 230 80<206.173 357.752> 580 80<197.599 362.649>
VStem: 60 90<368.421 532.752> 88 80<84.2075 170> 410 90<141.049 533.944>
LayerCount: 2
Fore
SplineSet
410 230 m 3xec
 410 274.003 410 364.2 410 450 c 25
 500 450 l 25
 500 379.8 500 345.166 500 270 c 3
 500 111.997 443.012 -10 278 -10 c 3
 158.988 -10 108 25 88 54 c 1
 88 170 l 1
 168 170.005 l 1
 168 102.005 l 1
 183 77 230.989 70 278 70 c 7
 341.127 70 410 125.88 410 230 c 3xec
280 580 m 3
 181.816 580 150 521.7 150 450 c 27xf4
 150 375.49 191.978 310 280 310 c 3
 376.021 310 410 375.49 410 450 c 27
 410 521.7 382.02 580 280 580 c 3
280 230 m 3
 137.986 230 60 328.66 60 450 c 27
 60 568.614 139.986 660 280 660 c 3
 417.014 660 500 568.614 500 450 c 27
 500 328.66 419.014 230 280 230 c 3
EndSplineSet
EndChar

StartChar: six
Encoding: 54 54 89
Width: 540
VWidth: 0
Flags: W
HStem: -10 80<194.446 342.641> 340 80<189.202 347.039> 499.995 21G<362 442> 580 80<208.657 360.725>
VStem: 60 90<117.323 220 380 514.955> 362 80<500 571.974> 390 90<121.14 296.46>
LayerCount: 2
Fore
SplineSet
150 420 m 3xfc
 150 375.997 150 298 150 220 c 25
 60 220 l 25
 60 282.4 60 304.834 60 380 c 3
 60 538.003 106.988 660 272 660 c 3
 391.012 660 422 625 442 596 c 1
 442 500 l 1
 362 499.995 l 1
 362 557.995 l 1
 347.5 573 325.01 580 272 580 c 3
 208.873 580 150 524.12 150 420 c 3xfc
270 70 m 3
 368.184 70 390 145.083 390 220 c 27xfa
 390 286.186 358.022 340 270 340 c 3
 173.979 340 150 286.186 150 220 c 27
 150 145.083 167.98 70 270 70 c 3
270 420 m 3
 412.014 420 480 333.1 480 220 c 27
 480 98.5352 410.014 -10 270 -10 c 3
 132.986 -10 60 98.5352 60 220 c 27
 60 333.1 130.986 420 270 420 c 3
EndSplineSet
EndChar

StartChar: eight
Encoding: 56 56 90
Width: 520
VWidth: 0
Flags: W
HStem: -10 80<183.32 337.261> 300 80<122.986 400.014> 580 80<194.614 328.408>
VStem: 40 90<122.087 257.771> 60 90<411.867 535.679> 370 90<416.497 540.441> 390 90<122.087 261.926>
LayerCount: 2
Fore
SplineSet
260 380 m 3xec
 330.028 380 370 422.022 370 480 c 27
 370 537.978 323 580 260 580 c 3
 199 580 150 530.67 150 470 c 27
 150 414.57 189.993 380 260 380 c 3xec
260 660 m 3
 402.014 660 460 584.938 460 480 c 27
 460 375.062 400.014 300 260 300 c 3
 122.986 300 60 375.062 60 480 c 27
 60 584.938 120.986 660 260 660 c 3
260 70 m 3
 347.006 70 390 128.3 390 200 c 27
 390 263.965 341.006 300 260 300 c 3
 189 300 130 263.965 130 200 c 27xf2
 130 128.3 172.994 70 260 70 c 3
260 380 m 3
 402.014 380 480 310.858 480 200 c 27
 480 81.3857 400.014 -10 260 -10 c 3
 122.986 -10 40 81.3857 40 200 c 27
 40 310.858 120.986 380 260 380 c 3
EndSplineSet
EndChar

StartChar: asciitilde
Encoding: 126 126 91
Width: 530
VWidth: 0
Flags: HW
HStem: 170 110<288.827 454.743> 200 110<50 115.465 414.535 480> 230 110<75.2572 241.173>
LayerCount: 2
Fore
SplineSet
340 180 m 27x80
 395.84 180 480 210 480 210 c 1
 480 300 l 5x40
 480 300 408.24 270 360 270 c 31x80
 289.691 270 260.309 330 190 330 c 31x20
 134.16 330 50 300 50 300 c 5
 50 210 l 1x40
 50 210 121.76 240 170 240 c 27x20
 240.309 240 269.691 180 340 180 c 27x80
EndSplineSet
EndChar

StartChar: braceleft
Encoding: 123 123 92
Width: 360
VWidth: 0
Flags: W
HStem: -220 80<285.933 330> 640 80<274.215 330>
VStem: 130 90<-49.442 202.71 353.645 579.464>
LayerCount: 2
Fore
SplineSet
220 70 m 3
 220 -43.0527 273.149 -140 330 -140 c 9
 330 -220 l 3
 206.448 -220 130 -62.4268 130 90 c 3
 130 182.348 86.3457 270.957 40 280 c 1
 90.6348 287.41 130 377.642 130 470 c 3
 130 601.575 211.155 720 330 720 c 9
 330 640 l 17
 272.072 640 220 578.888 220 490 c 3
 220 367.853 191.713 290.633 140 280 c 1
 187.388 275.571 220 198.016 220 70 c 3
EndSplineSet
EndChar

StartChar: percent
Encoding: 37 37 94
Width: 760
VWidth: 0
Flags: W
HStem: -20 60<511.335 629.966> 220 60<513.017 631.58> 420 60<130.514 249.567> 660 60<131.42 249.401>
VStem: 30 70<509.995 629.196> 280 70<510.804 630.005> 410 70<72.5094 185.823> 660 70<69.9954 190.005>
LayerCount: 2
Fore
SplineSet
190 660 m 3
 136.962 660 100 619.639 100 570 c 27
 100 520.361 134.964 480 190 480 c 3
 243.038 480 280 520.361 280 570 c 27
 280 619.639 245.145 660 190 660 c 3
190 420 m 3
 112 420 30 484.467 30 570 c 27
 30 655.533 105.905 720 190 720 c 3
 276 720 350 655.533 350 570 c 27
 350 484.467 288.021 420 190 420 c 3
570 220 m 3
 524.823 220 480 179.639 480 130 c 27
 480 80.3613 519 40 570 40 c 3
 625 40 660 80.3613 660 130 c 27
 660 179.639 627.035 220 570 220 c 3
570 -20 m 3
 492 -20 410 44.4668 410 130 c 27
 410 215.533 485.905 280 570 280 c 3
 656 280 730 215.533 730 130 c 27
 730 44.4668 668.021 -20 570 -20 c 3
140 -20 m 25
 530 720 l 25
 620 720 l 25
 230 -20 l 25
 140 -20 l 25
EndSplineSet
EndChar

StartChar: asterisk
Encoding: 42 42 95
Width: 500
VWidth: 0
Flags: MW
HStem: 680 20G<205 285>
VStem: 205 80<540 700>
DStem2: 80 590 50 510 0.930752 -0.365652<1.32965 134.627> 75 335 140 280 0.691905 0.721988<5.2645 160.943> 300 455 245 395 0.691905 -0.721988<5.2645 160.943> 285 540 300 455 0.930752 0.365652<0 133.297>
LayerCount: 2
Fore
SplineSet
205 700 m 1
 285 700 l 1
 285 540 l 1
 410 590 l 1
 440 510 l 1
 300 455 l 1
 415 335 l 1
 350 280 l 1
 245 395 l 1
 140 280 l 1
 75 335 l 1
 190 455 l 5
 50 510 l 5
 80 590 l 5
 205 540 l 5
 205 700 l 1
EndSplineSet
EndChar

StartChar: at
Encoding: 64 64 96
Width: 725
VWidth: 0
Flags: W
HStem: -190 70<274.111 524.913> -10 75<292.89 418.055> 0 21G<480 599.75> 300 70<312.705 451.141> 440 70<264.406 477.545>
VStem: 30 80<50.9308 284.842> 180 80<100.168 247.866> 480 75<122.391 272.632> 620 75<104.449 302.395>
LayerCount: 2
Fore
SplineSet
480 250 m 17xdf80
 462.982 265.501 443.649 300 390 300 c 3
 305.405 300 260 242.442 260 176 c 3
 260 111.951 293.49 65 345 65 c 3
 421.507 65 459.5 120 480 155 c 9
 480 250 l 17xdf80
480 0 m 9xbf80
 480 50 l 17
 439.5 0 381.074 -10 320 -10 c 3xdf80
 248.993 -10 180 43.999 180 170 c 3
 180 282.804 253 370 370 370 c 3
 423 370 495.5 356 555 290 c 1
 555 80 l 21
 583.5 82 620 95.5175 620 210 c 3
 620 344.001 507.515 440 370 440 c 3
 227.486 440 110 344.001 110 170 c 3
 110 7.90667 211.453 -120 382 -120 c 3
 495.57 -120 575.5 -88 613.5 -42 c 9
 650 -102 l 17
 597.5 -152 509.5 -190 388 -190 c 3
 146 -190 30 -14.2998 30 170 c 3
 30 350.755 149.491 510 370 510 c 3
 537.512 510 695 384.058 695 210 c 3
 695 187.949 719.5 0 480 0 c 9xbf80
EndSplineSet
EndChar

StartChar: ampersand
Encoding: 38 38 97
Width: 640
VWidth: 0
Flags: W
HStem: -12 80<184.784 356.826> -10 21G<537.5 565> 510 21G<390 470> 630 80<219.628 378.392>
VStem: 30 90<123.888 261.765> 80 90<445.843 583.774> 390 80<510 614.732> 490 90<220.168 272.333>
LayerCount: 2
Fore
SplineSet
455 190 m 1xb7
 471 222 485 261 490 300 c 1
 580 270 l 1
 575 225 555 178 530 135 c 1
 559 109 582 95 610 70 c 1
 550 -10 l 1x77
 525 13 490 37 465 60 c 1
 415 17 352 -12 280 -12 c 3
 104 -12 30 100 30 188 c 3xbb
 30 278 69 326 127 379 c 1
 103 412 80 476 80 520 c 3
 80 657.179 169 710 290 710 c 3
 409 710 442 673 470 646 c 1
 470 510 l 1
 390 510 l 1
 390 598 l 1
 363 627.8 324 630 290 630 c 3
 247 630 170 601.855 170 520 c 3
 170 443.793 233 371.8 455 190 c 1xb7
182 311 m 1
 139 273 120 228 120 188 c 3
 120 111.793 192 68 280 68 c 3xbb
 335.131 68 369 95 403 125 c 1
 182 311 l 1
EndSplineSet
EndChar

